<?xml version="1.0" encoding="UTF-8"?>
<svg width="48" height="48" version="1.1" viewBox="0 0 12.7 12.7" xmlns="http://www.w3.org/2000/svg" xmlns:cc="http://creativecommons.org/ns#" xmlns:dc="http://purl.org/dc/elements/1.1/" xmlns:rdf="http://www.w3.org/1999/02/22-rdf-syntax-ns#">
 <metadata>
  <rdf:RDF>
   <cc:Work rdf:about="">
    <dc:format>image/svg+xml</dc:format>
    <dc:type rdf:resource="http://purl.org/dc/dcmitype/StillImage"/>
    <dc:title/>
   </cc:Work>
  </rdf:RDF>
 </metadata>
 <circle cx="6.35" cy="6.35" r="5.961" fill="#d0d0d0" stroke="#323d23" stroke-width=".661"/>
 <path d="M9.024 3.42c.303-.18.753-.095 1.058.056.274.294-.189.597-.365.808-.287.164-.06.213.15.126.138-.03.54-.475.366-.11-.162.28-.493.412-.636.701a2.455 2.455 0 00-.354.793c-.162.049-.358.486-.06.363.184-.111.163.195.408.053.264-.044-.162.113.143.158.086.104-.51-.013-.36.266-.163-.06-.186-.213-.286-.015-.12-.1-.251-.43-.283-.085-.177.22-.31.763.09.721.188-.193.06.099.155.017.055-.268.67-.148.233-.028-.375.305.367-.16.394.163-.286-.046-.61.296-.675.36-.261-.004-.67.083-.815-.273-.046-.225-.167-.453-.355-.19-.606.42-1.405.482-2.11.334-.173-.19-.37-.132-.232.138.166.042.58.149.462.444-.122-.184-.262-.19-.115.036.02.102-.045.043-.135-.022a.519.519 0 00-.145-.08.367.367 0 00-.171-.006c-.053.027-.042.034-.062.061 0 0 .032.243-.046.078-.248-.167-.454-.387-.372-.712-.357-.028-.72.016-1.077-.039-.445-.031-.905-.177-1.341-.012-.391.201-.364.805-.015 1.03.263.223.6.262.928.265-.12.138-.59.017-.821-.02-.361-.05-.504-.363-.637-.65-.113-.31-.06-.617.183-.897.232-.2.335-.29.667-.44.468-.243 1.104-.298 1.608-.417.397-.072.803-.075 1.19-.202.367-.078.748-.114 1.099-.252.337-.186.724-.3 1.014-.555.253-.225.26-.582.43-.86.208-.274.307-.642.644-.768.213-.089.148-.236.246-.338z" fill="#666c32"/>
 <path d="M9.85 4.14c.13-.136.092-.122.136-.127a.31.31 0 01.274.144c-.054.008-.161.113-.269.196-.056.034-.11.07-.226.1-.1.025-.228-.003-.25-.006-.018-.004.254-.223.302-.272z" fill="#792c00"/>
 <g fill="#acae8e" stroke-opacity=".137" stroke-width=".147">
  <path d="M8.438 4.046l-.029.04s-.025-.02-.05-.034c.024-.017.053-.013.08-.006zm-.104.166l-.04.06s-.085 0-.113-.002c.012-.056.126-.066.153-.058zm-.055.097l-.039.061-.177-.022c.012-.064.184-.048.216-.04zm-.077.121l-.038.062s-.055-.06-.074-.073c.05-.047.112.012.112.012zm-.093.143l-.033.063s-.122-.006-.148-.01c.013-.064.149-.062.18-.053zm-.043.09l-.028.062s-.06-.028-.087-.032c.039-.047.083-.038.115-.03zm-.054.143l-.028.078s-.175.055-.201.05c.012-.098.197-.137.229-.128zm-.041.117l-.032.093s-.054-.047-.15-.035c-.006-.046.15-.067.182-.058zm-.671.725l-.059.03-.07-.004c-.007-.047.098-.035.13-.026zm-.112.054l-.06.03s-.026-.021-.065-.044c-.006-.046.093.006.125.014zm-.099.048l-.06.03s-.052-.033-.084-.062c.01-.05.112.023.144.031zm-.119.054l-.06.03s-.053-.032-.085-.061c.01-.05.112.023.144.032zm-.085.04l-.06.03s-.04-.03-.072-.06c.046-.05.1.022.132.03zm-.081.042l-.06.03-.082-.076c.049-.026.11.037.142.046zm-.114.055l-.06.03s-.036-.073-.062-.113c.049-.026.09.075.122.083z"/>
  <path d="M6.627 5.965l-.06.03s-.07-.08-.102-.108c.062-.023.117.064.14.086zm-.117.039l-.061.02s-.048-.043-.073-.083c.088-.025.101.055.133.063zm-.112.033l-.06.019s-.034-.034-.081-.052c.025-.032.109.024.14.033zm-.104.021l-.061.018s-.035-.04-.077-.07c.089-.026.106.043.138.052zm-.092.022l-.062.015s-.045-.034-.09-.063c.044-.023.12.04.152.048zm-.112.021l-.062.013s-.026-.051-.059-.094c.078.006.09.073.121.081zm-.105.019l-.061.016s-.015-.028-.053-.062c.044-.023.083.038.114.047zm-.114.024l-.062.015s-.004-.008-.041-.052c.045-.024.071.028.103.037zm-.103.018l-.062.013s-.027-.044-.052-.075c.078-.002.082.054.114.063zm-.115.018l-.063.013-.048-.022c.064-.018.08 0 .111.009z"/>
  <path d="M5.566 6.206l-.053.018s-.027-.044-.052-.075c.078-.003.08.022.08.022zm-.086.024l-.062.014-.075-.043c.064-.018.106.021.137.03zm-.09.027l-.063.013-.04-.042c.06-.002.07.02.103.029zm-1.045.153l-.062.012-.075-.043c.064-.017.106.021.137.03zm-.127.027l-.103.02-.078-.072c.065-.018.149.044.18.052zm-.166.034l-.102.02-.089-.067c.065-.018.16.039.191.047zm-.206.036l-.084.016-.063-.062c.064-.018.115.038.147.046zm-.17.033l-.122.025-.029-.081c.065-.018.12.048.152.057zm-.159.037l-.091.017-.06-.074c.06-.036.12.049.151.057zm-.181.046l-.1.021-.079-.06c.1-.042.179.039.179.039zm-.196.053l-.092.033-.059-.07a.17.17 0 01.15.037zm-.153.059l-.091.033-.05-.061c.077-.042.141.028.141.028zm-.147.068l-.09.033-.059-.04c.078-.041.15.007.15.007zm-.161.064l-.07.037-.025-.032c.024-.025.046-.014.095-.006zm-.132.073l-.069.036-.018-.027a.083.083 0 01.087-.01zm-.123.077l-.064.045-.023-.035c.042-.032.082-.012.087-.01zm-.141.106l-.06.05-.016-.024c.042-.032.072-.027.076-.025zm-.147.131l-.053.05-.023-.025c.042-.032.061-.029.066-.027zm-.134.186l-.037.053-.03-.02c.042-.032.052-.036.056-.034zm-.075.172l-.019.05-.03-.01c.013-.033.034-.043.038-.041z"/>
 </g>
 <path d="M9.407 3.878c.074 0 .12-.002.13.033.01.037.002.03-.036.088-.031.033-.047.053-.088.075-.056.035-.074.02-.111.013-.1-.022-.071-.065-.093-.069-.018-.003.028-.067.084-.108a.176.176 0 01.114-.032z" fill="#2f3823"/>
 <g fill-opacity=".98969" stroke-linejoin="round" stroke-opacity=".61173">
  <path transform="matrix(.81091 -.58517 .61911 .7853 0 0)" d="m5.3638 8.1133a0.59475 0.20357 0 0 1-0.59452 0.20357 0.59475 0.20357 0 0 1-0.59498-0.20341 0.59475 0.20357 0 0 1 0.59406-0.20372 0.59475 0.20357 0 0 1 0.59543 0.20325l-0.59475 3.127e-4z" fill="#e87fe3" stroke-width=".26512"/>
  <path d="m7.8927 2.5858 1.4561 0.63192-0.93309 0.69873z" fill="#e87fe3" stroke-width=".265"/>
  <path d="m8.2799 2.7545-0.19521 0.0089636-0.0064328 0.19531-0.12872-0.14703-0.15671 0.11674 0.034699-0.19231-0.18898-0.049732 0.17199-0.092774-0.078945-0.17876 0.17977 0.076622 0.090537-0.17318 0.052177 0.18832 0.19184-0.037189-0.1147 0.15821z" fill="#dee87f" stroke-width=".265"/>
 </g>
</svg>
